<?xml version="1.0" encoding="utf-8"?>
<!-- Generator: Adobe Illustrator 28.1.0, SVG Export Plug-In . SVG Version: 6.00 Build 0)  -->
<svg version="1.1" id="Слой_1" xmlns="http://www.w3.org/2000/svg" xmlns:xlink="http://www.w3.org/1999/xlink" x="0px" y="0px"
	 viewBox="0 0 3000 3000" style="enable-background:new 0 0 3000 3000;" xml:space="preserve">
<style type="text/css">
	.st0{fill:none;stroke:#FF8000;stroke-width:200;stroke-miterlimit:10;}
	.st1{fill:#FF8000;}
</style>
<path class="st0" d="M1080.95,2351.22c-307.62,0-557-249.38-557-557c0-301.84,240.09-547.6,539.71-556.74
	c61.64-316.43,340.32-555.26,674.79-555.26c379.7,0,687.5,307.8,687.5,687.5"/>
<path class="st1" d="M1348.14,2063.18c-36.27,0-71.21-13.05-98.28-37.21c-32.59-29.08-72.7-64.9-113.02-100.93
	c-39.08-34.91-78.8-70.4-111.94-99.97c-41-36.59-44.8-99.4-8.5-140.66l0,0c36.66-41.67,100.24-45.52,141.65-8.57
	c33.24,29.66,72.96,65.14,112.04,100.05c22.78,20.35,45.5,40.65,66.82,59.69c115.85-184.37,354.12-563.4,460.72-732.97
	c29.4-46.76,91.14-60.83,137.89-31.42l0.01,0c46.74,29.4,60.81,91.12,31.42,137.87c-118.45,188.42-399.54,635.57-494.48,786.7
	c-22.5,35.81-60.02,59.83-102.96,65.91C1362.36,2062.68,1355.22,2063.18,1348.14,2063.18z"/>
</svg>
